<?xml version="1.0" encoding="utf-8" standalone="no"?>
<!DOCTYPE svg PUBLIC "-//W3C//DTD SVG 1.1//EN"
  "http://www.w3.org/Graphics/SVG/1.1/DTD/svg11.dtd">
<!-- Created with matplotlib (https://matplotlib.org/) -->
<svg height="269.671632pt" version="1.1" viewBox="0 0 441.097984 269.671632" width="441.097984pt" xmlns="http://www.w3.org/2000/svg" xmlns:xlink="http://www.w3.org/1999/xlink">
 <defs>
  <style type="text/css">
*{stroke-linecap:butt;stroke-linejoin:round;}
  </style>
 </defs>
 <g id="figure_1">
  <g id="patch_1">
   <path d="M 0 269.671632 
L 441.097984 269.671632 
L 441.097984 0 
L 0 0 
z
" style="fill:#ffffff;"/>
  </g>
  <g id="axes_1">
   <g id="patch_2">
    <path d="M 28.093984 224.64 
L 362.893984 224.64 
L 362.893984 7.2 
L 28.093984 7.2 
z
" style="fill:#ffffff;"/>
   </g>
   <g id="matplotlib.axis_1">
    <g id="xtick_1">
     <g id="line2d_1">
      <defs>
       <path d="M 0 0 
L 0 3.5 
" id="m242df171a6" style="stroke:#000000;stroke-width:0.8;"/>
      </defs>
      <g>
       <use style="stroke:#000000;stroke-width:0.8;" x="28.093984" xlink:href="#m242df171a6" y="224.64"/>
      </g>
     </g>
     <g id="text_1">
      <!-- $\mathdefault{-4}$ -->
      <defs>
       <path d="M 65.90625 23 
C 67.59375 23 69.40625 23 69.40625 25 
C 69.40625 27 67.59375 27 65.90625 27 
L 11.796875 27 
C 10.09375 27 8.296875 27 8.296875 25 
C 8.296875 23 10.09375 23 11.796875 23 
z
" id="CMSY10-0"/>
       <path d="M 28 18 
L 28 10.515625 
C 28 4.515625 26.90625 3.109375 22 3.109375 
L 15.796875 3.109375 
L 15.796875 0 
C 29.09375 0 29.09375 0 31.5 0 
C 33.90625 0 33.90625 0 47.203125 0 
L 47.203125 3.109375 
L 42.40625 3.109375 
C 37.5 3.109375 36.40625 4.40625 36.40625 10.453125 
L 36.40625 18 
C 42.296875 18 44.40625 18 47.203125 17.703125 
L 47.203125 24.8125 
C 42.5 24.421875 40.59375 24.421875 39.09375 24.421875 
L 38.796875 24.421875 
L 36.40625 24.421875 
L 36.40625 38.390625 
C 36.40625 56.25 36.59375 64.875 37.09375 69 
L 35.90625 69.5 
L 28.5 66.796875 
L 0.203125 20.296875 
L 1.296875 18 
z
M 28 24.421875 
L 6.5 24.421875 
L 28 59.78125 
z
" id="URW_Palladio_L_Roman-52"/>
      </defs>
      <g transform="translate(20.188692 240.193876)scale(0.12 -0.12)">
       <use transform="scale(1.038107)" xlink:href="#CMSY10-0"/>
       <use transform="translate(81.941696 0)scale(0.996264)" xlink:href="#URW_Palladio_L_Roman-52"/>
      </g>
     </g>
    </g>
    <g id="xtick_2">
     <g id="line2d_2">
      <g>
       <use style="stroke:#000000;stroke-width:0.8;" x="69.943984" xlink:href="#m242df171a6" y="224.64"/>
      </g>
     </g>
     <g id="text_2">
      <!-- $\mathdefault{-3}$ -->
      <defs>
       <path d="M 4.296875 49.953125 
L 7.40625 49.953125 
L 9.203125 55.53125 
C 10.296875 58.90625 16.59375 62.296875 21.796875 62.296875 
C 28.296875 62.296875 33.59375 57.015625 33.59375 50.75 
C 33.59375 43.28125 27.703125 37 20.59375 37 
C 19.796875 37 18.703125 37 17.40625 37.203125 
L 15.90625 37.203125 
L 14.703125 31.984375 
L 15.40625 31.375 
C 19.203125 33.09375 21.09375 33.59375 23.796875 33.59375 
C 32.09375 33.59375 36.90625 28.265625 36.90625 19.09375 
C 36.90625 8.84375 30.796875 2.109375 21.5 2.109375 
C 16.90625 2.109375 12.796875 3.609375 9.796875 6.421875 
C 7.40625 8.640625 6.09375 10.953125 4.203125 16.390625 
L 1.5 15.390625 
C 3.59375 9.265625 4.40625 5.640625 5 0.609375 
C 10.296875 -1.203125 14.703125 -2 18.40625 -2 
C 26.40625 -2 35.59375 2.515625 41.09375 9.265625 
C 44.5 13.390625 46.203125 17.8125 46.203125 22.53125 
C 46.203125 27.359375 44.203125 31.59375 40.59375 34.09375 
C 38.09375 35.90625 35.796875 36.71875 30.796875 37.609375 
C 38.796875 43.796875 41.796875 48.375 41.796875 54.25 
C 41.796875 63.125 34.40625 69 23.296875 69 
C 16.5 69 12 67.109375 7.203125 62.328125 
z
" id="URW_Palladio_L_Roman-51"/>
      </defs>
      <g transform="translate(62.038692 240.193876)scale(0.12 -0.12)">
       <use transform="scale(1.038107)" xlink:href="#CMSY10-0"/>
       <use transform="translate(81.941696 0)scale(0.996264)" xlink:href="#URW_Palladio_L_Roman-51"/>
      </g>
     </g>
    </g>
    <g id="xtick_3">
     <g id="line2d_3">
      <g>
       <use style="stroke:#000000;stroke-width:0.8;" x="111.793984" xlink:href="#m242df171a6" y="224.64"/>
      </g>
     </g>
     <g id="text_3">
      <!-- $\mathdefault{-2}$ -->
      <defs>
       <path d="M 1.59375 2.5 
L 1.59375 0 
C 20.296875 0 20.296875 0 23.90625 0 
C 27.5 0 27.5 0 46.796875 0 
C 46.59375 1.953125 46.59375 2.90625 46.59375 4.203125 
C 46.59375 5.4375 46.59375 6.359375 46.796875 8.421875 
C 35.296875 8.421875 30.703125 8.421875 12.203125 8.421875 
L 30.40625 27.515625 
C 40.09375 37.71875 43.09375 43.171875 43.09375 50.59375 
C 43.09375 61.96875 35.296875 69 22.59375 69 
C 15.40625 69 10.5 67 5.59375 62.015625 
L 3.90625 48.421875 
L 6.796875 48.421875 
L 8.09375 53.015625 
C 9.703125 58.796875 13.296875 61.296875 20 61.296875 
C 28.59375 61.296875 34.09375 55.890625 34.09375 47.421875 
C 34.09375 39.921875 29.90625 32.546875 18.59375 20.5625 
z
" id="URW_Palladio_L_Roman-50"/>
      </defs>
      <g transform="translate(103.888692 240.193876)scale(0.12 -0.12)">
       <use transform="scale(1.038107)" xlink:href="#CMSY10-0"/>
       <use transform="translate(81.941696 0)scale(0.996264)" xlink:href="#URW_Palladio_L_Roman-50"/>
      </g>
     </g>
    </g>
    <g id="xtick_4">
     <g id="line2d_4">
      <g>
       <use style="stroke:#000000;stroke-width:0.8;" x="153.643984" xlink:href="#m242df171a6" y="224.64"/>
      </g>
     </g>
     <g id="text_4">
      <!-- $\mathdefault{-1}$ -->
      <defs>
       <path d="M 6.703125 56 
L 7.703125 56 
L 20.59375 61.8125 
C 20.703125 61.90625 20.796875 61.90625 20.90625 61.90625 
C 21.5 61.90625 21.703125 61.015625 21.703125 58.609375 
L 21.703125 9.578125 
C 21.703125 4.3125 20.59375 3.203125 15.203125 3.203125 
L 9.59375 3.203125 
L 9.59375 0 
C 25 0 25 0 26.09375 0 
C 27.40625 0 29.59375 0 33 0 
C 34.203125 0 37.703125 0 41.796875 0 
L 41.796875 3.203125 
L 36.59375 3.203125 
C 31.09375 3.203125 30.09375 4.3125 30.09375 9.5625 
L 30.09375 69.421875 
L 28.703125 69.921875 
C 22.203125 66.515625 15.09375 63.515625 6 60.3125 
z
" id="URW_Palladio_L_Roman-49"/>
      </defs>
      <g transform="translate(145.738692 240.193876)scale(0.12 -0.12)">
       <use transform="scale(1.038107)" xlink:href="#CMSY10-0"/>
       <use transform="translate(81.941696 0)scale(0.996264)" xlink:href="#URW_Palladio_L_Roman-49"/>
      </g>
     </g>
    </g>
    <g id="xtick_5">
     <g id="line2d_5">
      <g>
       <use style="stroke:#000000;stroke-width:0.8;" x="195.493984" xlink:href="#m242df171a6" y="224.64"/>
      </g>
     </g>
     <g id="text_5">
      <!-- $\mathdefault{0}$ -->
      <defs>
       <path d="M 26.296875 69 
C 10.796875 69 2.90625 56.6875 2.90625 32.453125 
C 2.90625 20.71875 5 10.625 8.5 5.71875 
C 12 0.796875 17.59375 -2 23.796875 -2 
C 38.90625 -2 46.5 11.015625 46.5 36.65625 
C 46.5 58.578125 40 69 26.296875 69 
z
M 24.5 65.5 
C 34.203125 65.5 38.09375 55.6875 38.09375 31.640625 
C 38.09375 10.328125 34.296875 1.5 25.09375 1.5 
C 15.40625 1.5 11.296875 11.625 11.296875 36.0625 
C 11.296875 57.1875 15 65.5 24.5 65.5 
z
" id="URW_Palladio_L_Roman-48"/>
      </defs>
      <g transform="translate(192.505192 240.193876)scale(0.12 -0.12)">
       <use transform="scale(0.996264)" xlink:href="#URW_Palladio_L_Roman-48"/>
      </g>
     </g>
    </g>
    <g id="xtick_6">
     <g id="line2d_6">
      <g>
       <use style="stroke:#000000;stroke-width:0.8;" x="237.343984" xlink:href="#m242df171a6" y="224.64"/>
      </g>
     </g>
     <g id="text_6">
      <!-- $\mathdefault{1}$ -->
      <g transform="translate(234.355192 240.193876)scale(0.12 -0.12)">
       <use transform="scale(0.996264)" xlink:href="#URW_Palladio_L_Roman-49"/>
      </g>
     </g>
    </g>
    <g id="xtick_7">
     <g id="line2d_7">
      <g>
       <use style="stroke:#000000;stroke-width:0.8;" x="279.193984" xlink:href="#m242df171a6" y="224.64"/>
      </g>
     </g>
     <g id="text_7">
      <!-- $\mathdefault{2}$ -->
      <g transform="translate(276.205192 240.193876)scale(0.12 -0.12)">
       <use transform="scale(0.996264)" xlink:href="#URW_Palladio_L_Roman-50"/>
      </g>
     </g>
    </g>
    <g id="xtick_8">
     <g id="line2d_8">
      <g>
       <use style="stroke:#000000;stroke-width:0.8;" x="321.043984" xlink:href="#m242df171a6" y="224.64"/>
      </g>
     </g>
     <g id="text_8">
      <!-- $\mathdefault{3}$ -->
      <g transform="translate(318.055192 240.193876)scale(0.12 -0.12)">
       <use transform="scale(0.996264)" xlink:href="#URW_Palladio_L_Roman-51"/>
      </g>
     </g>
    </g>
    <g id="xtick_9">
     <g id="line2d_9">
      <g>
       <use style="stroke:#000000;stroke-width:0.8;" x="362.893984" xlink:href="#m242df171a6" y="224.64"/>
      </g>
     </g>
     <g id="text_9">
      <!-- $\mathdefault{4}$ -->
      <g transform="translate(359.905192 240.193876)scale(0.12 -0.12)">
       <use transform="scale(0.996264)" xlink:href="#URW_Palladio_L_Roman-52"/>
      </g>
     </g>
    </g>
    <g id="text_10">
     <!-- $\Phi/\Phi_0$ -->
     <defs>
      <path d="M 24.703125 66 
L 29.5 66 
C 33.90625 66 34.5 65.171875 34.59375 58.015625 
C 16.09375 56.390625 2.203125 46.703125 2.203125 34.1875 
C 2.203125 21.578125 16.90625 11.390625 34.59375 11.390625 
C 34.5 3.96875 33.796875 3.203125 29.5 3.203125 
L 24.703125 3.203125 
L 24.703125 0 
C 30.59375 0 34.09375 0 39.296875 0 
C 44.5 0 48.09375 0 54 0 
L 54 3.203125 
L 49.203125 3.203125 
C 44.703125 3.203125 44.09375 4.03125 44.09375 11.390625 
C 61.90625 13.5 76.40625 24 76.40625 36.328125 
C 76.40625 48.625 62.703125 57.609375 44.09375 57.609375 
C 44.09375 65.109375 44.796875 66 49.203125 66 
L 54 66 
L 54 69.09375 
C 48.09375 69.09375 44.59375 69.09375 39.296875 69.09375 
C 34.09375 69.09375 30.59375 69.09375 24.703125 69.09375 
z
M 65.703125 34.546875 
C 65.703125 23.171875 56.796875 16.28125 44.09375 15.28125 
L 44.09375 53.8125 
C 57 52.40625 65.703125 45.921875 65.703125 34.546875 
z
M 12.90625 36.953125 
C 12.90625 47.453125 21.59375 53.40625 34.59375 53.40625 
L 34.59375 15.6875 
C 22.09375 17.609375 12.90625 25.265625 12.90625 36.953125 
z
" id="Pazo_Math-70"/>
      <path d="M 51.90625 72.5 
L 45.90625 72.5 
L 8.703125 -12 
L 14.703125 -12 
z
" id="URW_Palladio_L_Roman-47"/>
     </defs>
     <g transform="translate(175.913845 258.257516)scale(0.15 -0.15)">
      <use transform="scale(0.996264)" xlink:href="#Pazo_Math-70"/>
      <use transform="translate(80.796044 0)scale(0.996264)" xlink:href="#URW_Palladio_L_Roman-47"/>
      <use transform="translate(143.660249 0)scale(0.996264)" xlink:href="#Pazo_Math-70"/>
      <use transform="translate(223.210993 -17.441431)scale(0.757155)" xlink:href="#URW_Palladio_L_Roman-48"/>
     </g>
    </g>
   </g>
   <g id="matplotlib.axis_2">
    <g id="text_11">
     <!-- $E_n$ -->
     <defs>
      <path d="M 22.09375 33.328125 
L 33.796875 33.328125 
C 36.5 33.328125 39.59375 33.328125 44.40625 33.328125 
L 47 33.328125 
L 48.90625 37.609375 
L 48.5 38 
C 40.40625 38 34.40625 38 26.59375 38 
L 22.90625 38 
L 27.09375 61.546875 
C 27.40625 63.140625 27.59375 63.921875 28 64.71875 
L 32.703125 64.71875 
C 35.90625 64.71875 39.09375 64.71875 41.296875 64.71875 
C 47.5 64.71875 51.59375 63.890625 51.703125 62.53125 
L 52.5 53.6875 
L 54.90625 53.6875 
C 55.203125 60.046875 55.90625 65.03125 57 68.796875 
C 54.90625 69 51.90625 69 50.09375 69 
C 49.796875 69 48.703125 69 46.296875 69 
L 34.296875 69 
C 33.40625 69 27.5 69 26.5 69 
C 22.796875 69 20.09375 69 15 69 
L 10.5 69 
L 10.203125 66.109375 
L 15.59375 66.109375 
C 18 66.109375 19.09375 65.3125 19.09375 63.515625 
C 19.09375 62.125 18.703125 58.9375 18.203125 55.953125 
L 9.5 5.78125 
C 9.09375 3.984375 7.90625 3.28125 3.5 2.59375 
L 3 0 
L 7.09375 0 
C 10.203125 0 16.40625 0 18.40625 0 
L 39.90625 0 
L 40.90625 0 
C 42.296875 0 44.796875 0 48.09375 0 
L 51.40625 0 
L 51.796875 3.625 
C 52 5.65625 52.5 8.6875 53.40625 13.640625 
L 53.90625 16.265625 
L 51.203125 16.265625 
L 49.59375 10.125 
C 48.59375 6.4375 47.703125 5.21875 45.5 4.703125 
C 43.5 4.28125 36.203125 4.28125 30.796875 4.28125 
C 26.703125 4.28125 24.5 4.28125 17.59375 4.78125 
L 17.59375 5.1875 
C 17.59375 6.5625 17.703125 7.359375 17.796875 8.25 
z
" id="URW_Palladio_L_Italic-69"/>
      <path d="M 2.40625 38.609375 
L 3.09375 36.609375 
L 6.296875 38.703125 
C 10 41.015625 10.296875 41.203125 11 41.203125 
C 12.09375 41.203125 12.796875 40.21875 12.796875 38.71875 
C 12.796875 33.625 8.703125 14.359375 4.59375 0.09375 
L 5.296875 -1 
C 7.796875 -0.3125 10.09375 0.28125 12.296875 0.6875 
C 14.203125 13.265625 16.296875 19.75 20.90625 26.640625 
C 26.296875 35.015625 33.796875 41.203125 38.296875 41.203125 
C 39.40625 41.203125 40 40.3125 40 38.8125 
C 40 37.015625 39.703125 34.921875 38.90625 31.734375 
L 33.703125 10.578125 
C 32.796875 6.875 32.40625 4.59375 32.40625 3 
C 32.40625 0.484375 33.5 -1 35.40625 -1 
C 38 -1 41.59375 1.078125 51.40625 8.375 
L 50.40625 10.171875 
L 47.796875 8.484375 
C 44.90625 6.578125 42.703125 5.484375 41.703125 5.484375 
C 41 5.484375 40.40625 6.375 40.40625 7.46875 
C 40.40625 7.96875 40.5 9.078125 40.59375 9.484375 
L 47.203125 37.015625 
C 47.90625 39.921875 48.296875 42.703125 48.296875 44.390625 
C 48.296875 46.703125 47.203125 48 45.203125 48 
C 41 48 34.09375 44.21875 28.203125 38.71875 
C 24.40625 35.21875 21.59375 31.828125 16.40625 24.546875 
L 20.203125 40.609375 
C 20.59375 42.40625 20.796875 43.59375 20.796875 44.703125 
C 20.796875 46.796875 20 48 18.5 48 
C 16.40625 48 12.5 45.8125 5.203125 40.609375 
z
" id="URW_Palladio_L_Italic-110"/>
     </defs>
     <g transform="translate(19.317994 124.646864)rotate(-90)scale(0.17 -0.17)">
      <use transform="scale(0.996264)" xlink:href="#URW_Palladio_L_Italic-69"/>
      <use transform="translate(60.571791 -14.943915)scale(0.757155)" xlink:href="#URW_Palladio_L_Italic-110"/>
     </g>
    </g>
   </g>
   <g id="line2d_10">
    <path clip-path="url(#pdb4ba39a04)" d="M 277.641452 -1 
L 278.348529 2.785087 
L 281.730348 20.178512 
L 285.112166 36.862002 
L 288.493984 52.835556 
L 291.875802 68.099174 
L 295.25762 82.652856 
L 298.639439 96.496602 
L 302.021257 109.630413 
L 305.403075 122.054288 
L 308.784893 133.768228 
L 312.166711 144.772231 
L 315.548529 155.066299 
L 318.930348 164.650432 
L 322.312166 173.524628 
L 325.693984 181.688889 
L 329.075802 189.143214 
L 332.45762 195.887603 
L 335.839439 201.922057 
L 339.221257 207.246575 
L 342.603075 211.861157 
L 345.984893 215.765803 
L 349.366711 218.960514 
L 352.748529 221.445289 
L 356.130348 223.220129 
L 359.512166 224.285032 
L 362.893984 224.64 
" style="fill:none;stroke:#440154;stroke-linecap:square;stroke-width:2.5;"/>
   </g>
   <g id="line2d_11">
    <path clip-path="url(#pdb4ba39a04)" d="M 235.796672 -1 
L 237.766711 9.390817 
L 241.148529 26.518017 
L 244.530348 42.93528 
L 247.912166 58.642608 
L 251.293984 73.64 
L 254.675802 87.927456 
L 258.05762 101.504977 
L 261.439439 114.372562 
L 264.821257 126.530211 
L 268.203075 137.977925 
L 271.584893 148.715702 
L 274.966711 158.743545 
L 278.348529 168.061451 
L 281.730348 176.669421 
L 285.112166 184.567456 
L 288.493984 191.755556 
L 291.875802 198.233719 
L 295.25762 204.001947 
L 298.639439 209.060239 
L 302.021257 213.408595 
L 305.403075 217.047016 
L 308.784893 219.9755 
L 312.166711 222.19405 
L 315.548529 223.702663 
L 318.930348 224.501341 
L 322.312166 224.590083 
L 325.693984 223.968889 
L 329.075802 222.637759 
L 332.45762 220.596694 
L 335.839439 217.845693 
L 339.221257 214.384757 
L 342.603075 210.213884 
L 345.984893 205.333076 
L 349.366711 199.742332 
L 352.748529 193.441653 
L 356.130348 186.431038 
L 359.512166 178.710487 
L 362.893984 170.28 
" style="fill:none;stroke:#482878;stroke-linecap:square;stroke-width:2.5;"/>
   </g>
   <g id="line2d_12">
    <path clip-path="url(#pdb4ba39a04)" d="M 193.932835 -1 
L 197.184893 15.896713 
L 200.566711 32.757686 
L 203.948529 48.908724 
L 207.330348 64.349826 
L 210.712166 79.080992 
L 214.093984 93.102222 
L 217.475802 106.413517 
L 220.85762 119.014876 
L 224.239439 130.906299 
L 227.621257 142.087787 
L 231.003075 152.559339 
L 234.384893 162.320955 
L 237.766711 171.372635 
L 241.148529 179.71438 
L 244.530348 187.346189 
L 247.912166 194.268062 
L 251.293984 200.48 
L 254.675802 205.982002 
L 258.05762 210.774068 
L 261.439439 214.856198 
L 264.821257 218.228393 
L 268.203075 220.890652 
L 271.584893 222.842975 
L 274.966711 224.085363 
L 278.348529 224.617815 
L 281.730348 224.440331 
L 285.112166 223.552911 
L 288.493984 221.955556 
L 291.875802 219.648264 
L 295.25762 216.631038 
L 298.639439 212.903875 
L 302.021257 208.466777 
L 305.403075 203.319743 
L 308.784893 197.462773 
L 312.166711 190.895868 
L 315.548529 183.619027 
L 318.930348 175.63225 
L 322.312166 166.935537 
L 325.693984 157.528889 
L 329.075802 147.412305 
L 332.45762 136.585785 
L 335.839439 125.04933 
L 339.221257 112.802938 
L 342.603075 99.846612 
L 345.984893 86.180349 
L 349.366711 71.804151 
L 352.748529 56.718017 
L 356.130348 40.921947 
L 359.512166 24.415941 
L 362.893984 7.2 
" style="fill:none;stroke:#3e4989;stroke-linecap:square;stroke-width:2.5;"/>
   </g>
   <g id="line2d_13">
    <path clip-path="url(#pdb4ba39a04)" d="M 152.095257 -1 
L 153.221257 4.99809 
L 156.603075 22.302773 
L 159.984893 38.897521 
L 163.366711 54.782332 
L 166.748529 69.957208 
L 170.130348 84.422149 
L 173.512166 98.177153 
L 176.893984 111.222222 
L 180.275802 123.557355 
L 183.65762 135.182553 
L 187.039439 146.097815 
L 190.421257 156.30314 
L 193.803075 165.798531 
L 197.184893 174.583985 
L 200.566711 182.659504 
L 203.948529 190.025087 
L 207.330348 196.680735 
L 210.712166 202.626446 
L 214.093984 207.862222 
L 217.475802 212.388062 
L 220.85762 216.203967 
L 224.239439 219.309936 
L 227.621257 221.705969 
L 231.003075 223.392066 
L 234.384893 224.368228 
L 237.766711 224.634454 
L 241.148529 224.190744 
L 244.530348 223.037098 
L 247.912166 221.173517 
L 251.293984 218.6 
L 254.675802 215.316547 
L 258.05762 211.323159 
L 261.439439 206.619835 
L 264.821257 201.206575 
L 268.203075 195.083379 
L 271.584893 188.250248 
L 274.966711 180.707181 
L 278.348529 172.454178 
L 281.730348 163.49124 
L 285.112166 153.818365 
L 288.493984 143.435556 
L 291.875802 132.34281 
L 295.25762 120.540129 
L 298.639439 108.027511 
L 302.021257 94.804959 
L 305.403075 80.87247 
L 308.784893 66.230046 
L 312.166711 50.877686 
L 315.548529 34.81539 
L 318.930348 18.043159 
L 322.312166 0.560992 
L 322.602346 -1 
" style="fill:none;stroke:#31688e;stroke-linecap:square;stroke-width:2.5;"/>
   </g>
   <g id="line2d_14">
    <path clip-path="url(#pdb4ba39a04)" d="M 110.24422 -1 
L 112.639439 11.570542 
L 116.021257 28.608999 
L 119.403075 44.937521 
L 122.784893 60.556107 
L 126.166711 75.464757 
L 129.548529 89.663471 
L 132.930348 103.15225 
L 136.312166 115.931093 
L 139.693984 128 
L 143.075802 139.358972 
L 146.45762 150.008007 
L 149.839439 159.947107 
L 153.221257 169.176272 
L 156.603075 177.6955 
L 159.984893 185.504793 
L 163.366711 192.604151 
L 166.748529 198.993572 
L 170.130348 204.673058 
L 173.512166 209.642608 
L 176.893984 213.902222 
L 180.275802 217.451901 
L 183.65762 220.291644 
L 187.039439 222.421451 
L 190.421257 223.841322 
L 193.803075 224.551258 
L 197.184893 224.551258 
L 200.566711 223.841322 
L 203.948529 222.421451 
L 207.330348 220.291644 
L 210.712166 217.451901 
L 214.093984 213.902222 
L 217.475802 209.642608 
L 220.85762 204.673058 
L 224.239439 198.993572 
L 227.621257 192.604151 
L 231.003075 185.504793 
L 234.384893 177.6955 
L 237.766711 169.176272 
L 241.148529 159.947107 
L 244.530348 150.008007 
L 247.912166 139.358972 
L 251.293984 128 
L 254.675802 115.931093 
L 258.05762 103.15225 
L 261.439439 89.663471 
L 264.821257 75.464757 
L 268.203075 60.556107 
L 271.584893 44.937521 
L 274.966711 28.608999 
L 278.348529 11.570542 
L 280.743748 -1 
" style="fill:none;stroke:#26828e;stroke-linecap:square;stroke-width:2.5;"/>
   </g>
   <g id="line2d_15">
    <path clip-path="url(#pdb4ba39a04)" d="M 68.385622 -1 
L 68.675802 0.560992 
L 72.05762 18.043159 
L 75.439439 34.81539 
L 78.821257 50.877686 
L 82.203075 66.230046 
L 85.584893 80.87247 
L 88.966711 94.804959 
L 92.348529 108.027511 
L 95.730348 120.540129 
L 99.112166 132.34281 
L 102.493984 143.435556 
L 105.875802 153.818365 
L 109.25762 163.49124 
L 112.639439 172.454178 
L 116.021257 180.707181 
L 119.403075 188.250248 
L 122.784893 195.083379 
L 126.166711 201.206575 
L 129.548529 206.619835 
L 132.930348 211.323159 
L 136.312166 215.316547 
L 139.693984 218.6 
L 143.075802 221.173517 
L 146.45762 223.037098 
L 149.839439 224.190744 
L 153.221257 224.634454 
L 156.603075 224.368228 
L 159.984893 223.392066 
L 163.366711 221.705969 
L 166.748529 219.309936 
L 170.130348 216.203967 
L 173.512166 212.388062 
L 176.893984 207.862222 
L 180.275802 202.626446 
L 183.65762 196.680735 
L 187.039439 190.025087 
L 190.421257 182.659504 
L 193.803075 174.583985 
L 197.184893 165.798531 
L 200.566711 156.30314 
L 203.948529 146.097815 
L 207.330348 135.182553 
L 210.712166 123.557355 
L 214.093984 111.222222 
L 217.475802 98.177153 
L 220.85762 84.422149 
L 224.239439 69.957208 
L 227.621257 54.782332 
L 231.003075 38.897521 
L 234.384893 22.302773 
L 237.766711 4.99809 
L 238.892711 -1 
" style="fill:none;stroke:#1f9e89;stroke-linecap:square;stroke-width:2.5;"/>
   </g>
   <g id="line2d_16">
    <path clip-path="url(#pdb4ba39a04)" d="M 28.093984 7.2 
L 31.475802 24.415941 
L 34.85762 40.921947 
L 38.239439 56.718017 
L 41.621257 71.804151 
L 45.003075 86.180349 
L 48.384893 99.846612 
L 51.766711 112.802938 
L 55.148529 125.04933 
L 58.530348 136.585785 
L 61.912166 147.412305 
L 65.293984 157.528889 
L 68.675802 166.935537 
L 72.05762 175.63225 
L 75.439439 183.619027 
L 78.821257 190.895868 
L 82.203075 197.462773 
L 85.584893 203.319743 
L 88.966711 208.466777 
L 92.348529 212.903875 
L 95.730348 216.631038 
L 99.112166 219.648264 
L 102.493984 221.955556 
L 105.875802 223.552911 
L 109.25762 224.440331 
L 112.639439 224.617815 
L 116.021257 224.085363 
L 119.403075 222.842975 
L 122.784893 220.890652 
L 126.166711 218.228393 
L 129.548529 214.856198 
L 132.930348 210.774068 
L 136.312166 205.982002 
L 139.693984 200.48 
L 143.075802 194.268062 
L 146.45762 187.346189 
L 149.839439 179.71438 
L 153.221257 171.372635 
L 156.603075 162.320955 
L 159.984893 152.559339 
L 163.366711 142.087787 
L 166.748529 130.906299 
L 170.130348 119.014876 
L 173.512166 106.413517 
L 176.893984 93.102222 
L 180.275802 79.080992 
L 183.65762 64.349826 
L 187.039439 48.908724 
L 190.421257 32.757686 
L 193.803075 15.896713 
L 197.055133 -1 
" style="fill:none;stroke:#35b779;stroke-linecap:square;stroke-width:2.5;"/>
   </g>
   <g id="line2d_17">
    <path clip-path="url(#pdb4ba39a04)" d="M 28.093984 170.28 
L 31.475802 178.710487 
L 34.85762 186.431038 
L 38.239439 193.441653 
L 41.621257 199.742332 
L 45.003075 205.333076 
L 48.384893 210.213884 
L 51.766711 214.384757 
L 55.148529 217.845693 
L 58.530348 220.596694 
L 61.912166 222.637759 
L 65.293984 223.968889 
L 68.675802 224.590083 
L 72.05762 224.501341 
L 75.439439 223.702663 
L 78.821257 222.19405 
L 82.203075 219.9755 
L 85.584893 217.047016 
L 88.966711 213.408595 
L 92.348529 209.060239 
L 95.730348 204.001947 
L 99.112166 198.233719 
L 102.493984 191.755556 
L 105.875802 184.567456 
L 109.25762 176.669421 
L 112.639439 168.061451 
L 116.021257 158.743545 
L 119.403075 148.715702 
L 122.784893 137.977925 
L 126.166711 126.530211 
L 129.548529 114.372562 
L 132.930348 101.504977 
L 136.312166 87.927456 
L 139.693984 73.64 
L 143.075802 58.642608 
L 146.45762 42.93528 
L 149.839439 26.518017 
L 153.221257 9.390817 
L 155.191296 -1 
" style="fill:none;stroke:#6ece58;stroke-linecap:square;stroke-width:2.5;"/>
   </g>
   <g id="line2d_18">
    <path clip-path="url(#pdb4ba39a04)" d="M 28.093984 224.64 
L 31.475802 224.285032 
L 34.85762 223.220129 
L 38.239439 221.445289 
L 41.621257 218.960514 
L 45.003075 215.765803 
L 48.384893 211.861157 
L 51.766711 207.246575 
L 55.148529 201.922057 
L 58.530348 195.887603 
L 61.912166 189.143214 
L 65.293984 181.688889 
L 68.675802 173.524628 
L 72.05762 164.650432 
L 75.439439 155.066299 
L 78.821257 144.772231 
L 82.203075 133.768228 
L 85.584893 122.054288 
L 88.966711 109.630413 
L 92.348529 96.496602 
L 95.730348 82.652856 
L 99.112166 68.099174 
L 102.493984 52.835556 
L 105.875802 36.862002 
L 109.25762 20.178512 
L 112.639439 2.785087 
L 113.346516 -1 
" style="fill:none;stroke:#b5de2b;stroke-linecap:square;stroke-width:2.5;"/>
   </g>
   <g id="patch_3">
    <path d="M 28.093984 224.64 
L 28.093984 7.2 
" style="fill:none;stroke:#000000;stroke-linecap:square;stroke-linejoin:miter;stroke-width:0.8;"/>
   </g>
   <g id="patch_4">
    <path d="M 362.893984 224.64 
L 362.893984 7.2 
" style="fill:none;stroke:#000000;stroke-linecap:square;stroke-linejoin:miter;stroke-width:0.8;"/>
   </g>
   <g id="patch_5">
    <path d="M 28.093984 224.64 
L 362.893984 224.64 
" style="fill:none;stroke:#000000;stroke-linecap:square;stroke-linejoin:miter;stroke-width:0.8;"/>
   </g>
   <g id="patch_6">
    <path d="M 28.093984 7.2 
L 362.893984 7.2 
" style="fill:none;stroke:#000000;stroke-linecap:square;stroke-linejoin:miter;stroke-width:0.8;"/>
   </g>
   <g id="legend_1">
    <g id="patch_7">
     <path d="M 379.287401 209.345799 
L 433.497984 209.345799 
Q 435.897984 209.345799 435.897984 206.945799 
L 435.897984 28.894201 
Q 435.897984 26.494201 433.497984 26.494201 
L 379.287401 26.494201 
Q 376.887401 26.494201 376.887401 28.894201 
L 376.887401 206.945799 
Q 376.887401 209.345799 379.287401 209.345799 
z
" style="fill:#4c4c4c;opacity:0.5;stroke:#4c4c4c;stroke-linejoin:miter;"/>
    </g>
    <g id="patch_8">
     <path d="M 377.287401 207.345799 
L 431.497984 207.345799 
Q 433.897984 207.345799 433.897984 204.945799 
L 433.897984 26.894201 
Q 433.897984 24.494201 431.497984 24.494201 
L 377.287401 24.494201 
Q 374.887401 24.494201 374.887401 26.894201 
L 374.887401 204.945799 
Q 374.887401 207.345799 377.287401 207.345799 
z
" style="fill:#ffffff;stroke:#cccccc;stroke-linejoin:miter;"/>
    </g>
    <g id="text_12">
     <!-- n -->
     <defs>
      <path d="M 41 -0.109375 
C 47.09375 -0.109375 47.203125 -0.109375 48.90625 -0.109375 
C 50.296875 -0.109375 50.296875 -0.109375 57.203125 -0.109375 
L 57.203125 2.796875 
L 53.09375 3.203125 
C 49.703125 3.203125 49.40625 3.8125 49.40625 10.21875 
L 49.40625 29.5625 
C 49.40625 41.28125 43.90625 47 32.703125 47 
C 29 47 26.90625 46.296875 24.796875 44.484375 
L 17.203125 37.875 
L 17.203125 46.59375 
L 16.296875 47 
C 11.203125 44.890625 6 43.484375 0.703125 42.890625 
L 0.703125 40.078125 
L 4.40625 40.078125 
C 8.40625 40.078125 8.796875 39.375 8.796875 32.71875 
L 8.796875 10.046875 
C 8.796875 3.703125 8.5 3 5.09375 3 
L 0.59375 3 
L 0.59375 -0.109375 
C 7.40625 -0.109375 10.09375 -0.109375 13 -0.109375 
C 15.90625 -0.109375 18.59375 -0.109375 25.40625 -0.109375 
L 25.40625 3 
L 20.90625 3 
C 17.5 3 17.203125 3.703125 17.203125 10.046875 
L 17.203125 31.421875 
C 17.203125 35.9375 23.796875 40.875 29.90625 40.875 
C 36.59375 40.875 41 35.890625 41 28.21875 
z
" id="URW_Palladio_L_Roman-110"/>
     </defs>
     <g transform="translate(400.913772 37.848077)scale(0.12 -0.12)">
      <use transform="scale(0.996264)" xlink:href="#URW_Palladio_L_Roman-110"/>
     </g>
    </g>
    <g id="line2d_19">
     <path d="M 379.687401 51.573237 
L 403.687401 51.573237 
" style="fill:none;stroke:#440154;stroke-linecap:square;stroke-width:2.5;"/>
    </g>
    <g id="line2d_20"/>
    <g id="text_13">
     <!-- $\mathrm-4$ -->
     <g transform="translate(413.287401 55.773237)scale(0.12 -0.12)">
      <use transform="scale(1.038107)" xlink:href="#CMSY10-0"/>
      <use transform="translate(81.941696 0)scale(0.996264)" xlink:href="#URW_Palladio_L_Roman-52"/>
     </g>
    </g>
    <g id="line2d_21">
     <path d="M 379.687401 69.498396 
L 403.687401 69.498396 
" style="fill:none;stroke:#482878;stroke-linecap:square;stroke-width:2.5;"/>
    </g>
    <g id="line2d_22"/>
    <g id="text_14">
     <!-- $\mathrm-3$ -->
     <g transform="translate(413.287401 73.698396)scale(0.12 -0.12)">
      <use transform="scale(1.038107)" xlink:href="#CMSY10-0"/>
      <use transform="translate(81.941696 0)scale(0.996264)" xlink:href="#URW_Palladio_L_Roman-51"/>
     </g>
    </g>
    <g id="line2d_23">
     <path d="M 379.687401 87.423556 
L 403.687401 87.423556 
" style="fill:none;stroke:#3e4989;stroke-linecap:square;stroke-width:2.5;"/>
    </g>
    <g id="line2d_24"/>
    <g id="text_15">
     <!-- $\mathrm-2$ -->
     <g transform="translate(413.287401 91.623556)scale(0.12 -0.12)">
      <use transform="scale(1.038107)" xlink:href="#CMSY10-0"/>
      <use transform="translate(81.941696 0)scale(0.996264)" xlink:href="#URW_Palladio_L_Roman-50"/>
     </g>
    </g>
    <g id="line2d_25">
     <path d="M 379.687401 105.348716 
L 403.687401 105.348716 
" style="fill:none;stroke:#31688e;stroke-linecap:square;stroke-width:2.5;"/>
    </g>
    <g id="line2d_26"/>
    <g id="text_16">
     <!-- $\mathrm-1$ -->
     <g transform="translate(413.287401 109.548716)scale(0.12 -0.12)">
      <use transform="scale(1.038107)" xlink:href="#CMSY10-0"/>
      <use transform="translate(81.941696 0)scale(0.996264)" xlink:href="#URW_Palladio_L_Roman-49"/>
     </g>
    </g>
    <g id="line2d_27">
     <path d="M 379.687401 123.273876 
L 403.687401 123.273876 
" style="fill:none;stroke:#26828e;stroke-linecap:square;stroke-width:2.5;"/>
    </g>
    <g id="line2d_28"/>
    <g id="text_17">
     <!-- $\mathrm0$ -->
     <g transform="translate(413.287401 127.473876)scale(0.12 -0.12)">
      <use transform="scale(0.996264)" xlink:href="#URW_Palladio_L_Roman-48"/>
     </g>
    </g>
    <g id="line2d_29">
     <path d="M 379.687401 141.199036 
L 403.687401 141.199036 
" style="fill:none;stroke:#1f9e89;stroke-linecap:square;stroke-width:2.5;"/>
    </g>
    <g id="line2d_30"/>
    <g id="text_18">
     <!-- $\mathrm1$ -->
     <g transform="translate(413.287401 145.399036)scale(0.12 -0.12)">
      <use transform="scale(0.996264)" xlink:href="#URW_Palladio_L_Roman-49"/>
     </g>
    </g>
    <g id="line2d_31">
     <path d="M 379.687401 159.124195 
L 403.687401 159.124195 
" style="fill:none;stroke:#35b779;stroke-linecap:square;stroke-width:2.5;"/>
    </g>
    <g id="line2d_32"/>
    <g id="text_19">
     <!-- $\mathrm2$ -->
     <g transform="translate(413.287401 163.324195)scale(0.12 -0.12)">
      <use transform="scale(0.996264)" xlink:href="#URW_Palladio_L_Roman-50"/>
     </g>
    </g>
    <g id="line2d_33">
     <path d="M 379.687401 177.049355 
L 403.687401 177.049355 
" style="fill:none;stroke:#6ece58;stroke-linecap:square;stroke-width:2.5;"/>
    </g>
    <g id="line2d_34"/>
    <g id="text_20">
     <!-- $\mathrm3$ -->
     <g transform="translate(413.287401 181.249355)scale(0.12 -0.12)">
      <use transform="scale(0.996264)" xlink:href="#URW_Palladio_L_Roman-51"/>
     </g>
    </g>
    <g id="line2d_35">
     <path d="M 379.687401 194.974515 
L 403.687401 194.974515 
" style="fill:none;stroke:#b5de2b;stroke-linecap:square;stroke-width:2.5;"/>
    </g>
    <g id="line2d_36"/>
    <g id="text_21">
     <!-- $\mathrm4$ -->
     <g transform="translate(413.287401 199.174515)scale(0.12 -0.12)">
      <use transform="scale(0.996264)" xlink:href="#URW_Palladio_L_Roman-52"/>
     </g>
    </g>
   </g>
  </g>
 </g>
 <defs>
  <clipPath id="pdb4ba39a04">
   <rect height="217.44" width="334.8" x="28.093984" y="7.2"/>
  </clipPath>
 </defs>
</svg>
